<?xml version="1.0" encoding="UTF-8"?><svg id="Capa_1" xmlns="http://www.w3.org/2000/svg" viewBox="0 0 1892.17 584.69"><defs><style>.cls-1{fill:#fff;}</style></defs><path class="cls-1" d="m684.97,139.66h-74.65c-1,0-1.92.53-2.42,1.39l-185.93,321.16c-1.08,1.86.27,4.19,2.42,4.19h64.05c1,0,1.93-.54,2.42-1.4l38.48-67.23c.5-.87,1.42-1.4,2.42-1.4h230.62c1,0,1.93.54,2.42,1.4l38.48,67.23c.5.87,1.42,1.4,2.42,1.4h63.59c2.15,0,3.49-2.33,2.42-4.19l-186.34-321.86-.4-.7Zm43.12,203.22h-162.5c-2.15,0-3.49-2.32-2.42-4.18l81.25-141.76c1.07-1.87,3.77-1.87,4.84,0l81.25,141.76c1.07,1.86-.28,4.18-2.42,4.18Z"/><path class="cls-1" d="m1787.76,191.27v-48.82c0-1.54-1.25-2.79-2.79-2.79h-324.07c-1.54,0-2.79,1.25-2.79,2.79v321.16c0,1.54,1.25,2.79,2.79,2.79h324.07c1.54,0,2.79-1.25,2.79-2.79v-48.36c0-1.54-1.25-2.79-2.79-2.79h-262.3c-1.54,0-2.79-1.25-2.79-2.79v-76.88c0-1.54,1.25-2.79,2.79-2.79h253.08c1.54,0,2.79-1.25,2.79-2.79v-48.36c0-1.54-1.25-2.79-2.79-2.79h-253.08c-1.54,0-2.79-1.25-2.79-2.79v-76.41c0-1.54,1.25-2.79,2.79-2.79h262.3c1.54,0,2.79-1.25,2.79-2.79Z"/><path class="cls-1" d="m1301.67,351.02v112.59c0,1.54,1.25,2.79,2.79,2.79h56.19c1.54,0,2.79-1.25,2.79-2.79v-203.91c0-2.82-3.71-3.86-5.17-1.45l-56.4,92.44-.2.33Z"/><path class="cls-1" d="m1363.38,221.21l.06-100.12c0-2.13-2.29-3.48-4.16-2.44l-86.73,48.59c-1.87,1.05-1.91,3.74-.06,4.83l16.5,9.81c1.34.8,1.77,2.53.95,3.86l-133.04,216.63c-1.09,1.77-3.67,1.77-4.76,0l-160.52-261.38c-.51-.83-1.41-1.33-2.38-1.33h-40.45c-1.54,0-2.79,1.25-2.79,2.79v321.16c0,1.54,1.25,2.79,2.79,2.79h56.19c1.54,0,2.79-1.25,2.79-2.79v-171.38c0-2.82,3.71-3.86,5.18-1.45l106.1,174.65.59.98h68.17c.97,0,1.88-.51,2.38-1.34l151.65-248.54c.8-1.31,2.5-1.73,3.81-.95l13.49,8.02c1.86,1.11,4.22-.23,4.22-2.4Z"/><rect class="cls-1" x="104.41" y="139.66" width="335.24" height="60.91" rx="2.79" ry="2.79"/><rect class="cls-1" x="104.41" y="270.48" width="285.26" height="60.91" rx="2.79" ry="2.79"/><rect class="cls-1" x="105.81" y="400.41" width="64.52" height="64.52" rx=".5" ry=".5"/></svg>